<mxfile host="app.diagrams.net" modified="2023-04-26T02:59:02.186Z" agent="Mozilla/5.0 (Windows NT 10.0; Win64; x64) AppleWebKit/537.36 (KHTML, like Gecko) Chrome/112.0.0.0 Safari/537.36 Edg/112.0.1722.58" etag="6j1PVrwAIHRMhPXxq-iR" version="21.2.2" type="github">
  <diagram name="Page-1" id="7e0a89b8-554c-2b80-1dc8-d5c74ca68de4">
    <mxGraphModel dx="1593" dy="840" grid="1" gridSize="10" guides="1" tooltips="1" connect="1" arrows="1" fold="1" page="1" pageScale="1" pageWidth="1100" pageHeight="850" background="none" math="0" shadow="0">
      <root>
        <mxCell id="0" />
        <mxCell id="1" parent="0" />
        <mxCell id="hIipjYZUwrMKysPcCawK-15" value="" style="rounded=0;whiteSpace=wrap;html=1;" vertex="1" parent="1">
          <mxGeometry x="220" y="170" width="720" height="370" as="geometry" />
        </mxCell>
        <mxCell id="hIipjYZUwrMKysPcCawK-12" style="edgeStyle=orthogonalEdgeStyle;rounded=0;orthogonalLoop=1;jettySize=auto;html=1;exitX=0.25;exitY=0;exitDx=0;exitDy=0;" edge="1" parent="1" source="hIipjYZUwrMKysPcCawK-2" target="hIipjYZUwrMKysPcCawK-11">
          <mxGeometry relative="1" as="geometry" />
        </mxCell>
        <mxCell id="hIipjYZUwrMKysPcCawK-13" style="edgeStyle=orthogonalEdgeStyle;rounded=0;orthogonalLoop=1;jettySize=auto;html=1;exitX=0.75;exitY=0;exitDx=0;exitDy=0;entryX=0.5;entryY=1;entryDx=0;entryDy=0;" edge="1" parent="1" source="hIipjYZUwrMKysPcCawK-2" target="hIipjYZUwrMKysPcCawK-5">
          <mxGeometry relative="1" as="geometry" />
        </mxCell>
        <mxCell id="hIipjYZUwrMKysPcCawK-14" style="edgeStyle=orthogonalEdgeStyle;rounded=0;orthogonalLoop=1;jettySize=auto;html=1;exitX=1;exitY=0.5;exitDx=0;exitDy=0;entryX=0;entryY=0.5;entryDx=0;entryDy=0;" edge="1" parent="1" source="hIipjYZUwrMKysPcCawK-2" target="hIipjYZUwrMKysPcCawK-10">
          <mxGeometry relative="1" as="geometry" />
        </mxCell>
        <mxCell id="hIipjYZUwrMKysPcCawK-2" value="&lt;font style=&quot;font-size: 18px;&quot;&gt;APM32F103RC&lt;/font&gt;" style="rounded=0;whiteSpace=wrap;html=1;" vertex="1" parent="1">
          <mxGeometry x="430" y="290" width="310" height="120" as="geometry" />
        </mxCell>
        <mxCell id="hIipjYZUwrMKysPcCawK-3" value="RF无线模块" style="rounded=0;whiteSpace=wrap;html=1;" vertex="1" parent="1">
          <mxGeometry x="270" y="305" width="90" height="90" as="geometry" />
        </mxCell>
        <mxCell id="hIipjYZUwrMKysPcCawK-4" value="" style="endArrow=classic;startArrow=classic;html=1;rounded=0;entryX=0;entryY=0.5;entryDx=0;entryDy=0;" edge="1" parent="1" target="hIipjYZUwrMKysPcCawK-2">
          <mxGeometry width="50" height="50" relative="1" as="geometry">
            <mxPoint x="360" y="350" as="sourcePoint" />
            <mxPoint x="410" y="300" as="targetPoint" />
          </mxGeometry>
        </mxCell>
        <mxCell id="hIipjYZUwrMKysPcCawK-5" value="LED" style="rounded=0;whiteSpace=wrap;html=1;" vertex="1" parent="1">
          <mxGeometry x="620" y="190" width="120" height="60" as="geometry" />
        </mxCell>
        <mxCell id="hIipjYZUwrMKysPcCawK-17" style="edgeStyle=orthogonalEdgeStyle;rounded=0;orthogonalLoop=1;jettySize=auto;html=1;exitX=0.5;exitY=0;exitDx=0;exitDy=0;" edge="1" parent="1" source="hIipjYZUwrMKysPcCawK-6" target="hIipjYZUwrMKysPcCawK-2">
          <mxGeometry relative="1" as="geometry" />
        </mxCell>
        <mxCell id="hIipjYZUwrMKysPcCawK-6" value="POWER Convert" style="rounded=0;whiteSpace=wrap;html=1;" vertex="1" parent="1">
          <mxGeometry x="525" y="460" width="120" height="60" as="geometry" />
        </mxCell>
        <mxCell id="hIipjYZUwrMKysPcCawK-9" style="edgeStyle=orthogonalEdgeStyle;rounded=0;orthogonalLoop=1;jettySize=auto;html=1;exitX=1;exitY=0.5;exitDx=0;exitDy=0;" edge="1" parent="1" source="hIipjYZUwrMKysPcCawK-7" target="hIipjYZUwrMKysPcCawK-6">
          <mxGeometry relative="1" as="geometry" />
        </mxCell>
        <mxCell id="hIipjYZUwrMKysPcCawK-7" value="电池" style="rounded=0;whiteSpace=wrap;html=1;" vertex="1" parent="1">
          <mxGeometry x="70" y="460" width="120" height="60" as="geometry" />
        </mxCell>
        <mxCell id="hIipjYZUwrMKysPcCawK-10" value="信号输入与控制" style="rounded=0;whiteSpace=wrap;html=1;" vertex="1" parent="1">
          <mxGeometry x="800" y="305" width="90" height="90" as="geometry" />
        </mxCell>
        <mxCell id="hIipjYZUwrMKysPcCawK-11" value="EEPROM" style="rounded=0;whiteSpace=wrap;html=1;" vertex="1" parent="1">
          <mxGeometry x="430" y="190" width="120" height="60" as="geometry" />
        </mxCell>
        <mxCell id="hIipjYZUwrMKysPcCawK-16" value="&lt;font style=&quot;font-size: 24px;&quot;&gt;信号测量板&lt;/font&gt;" style="text;html=1;strokeColor=none;fillColor=none;align=center;verticalAlign=middle;whiteSpace=wrap;rounded=0;" vertex="1" parent="1">
          <mxGeometry x="250" y="210" width="140" height="30" as="geometry" />
        </mxCell>
      </root>
    </mxGraphModel>
  </diagram>
</mxfile>
